#!OML:ASF F:\VICON\USERDATA\INSTALL\rory3\rory3.ASF
:FULLY-SPECIFIED
:DEGREES
69
root 1.446 17.2447 34.4019 -159.72 -53.8987 -172.673
lowerback -17.4941 3.9343 -0.984519
upperback -11.3995 4.11443 -0.237436
thorax -2.4854 1.59537 0.931012
lowerneck -12.9814 -3.65847 -2.90208
upperneck 26.4089 -7.11558 6.07854
head 10.9944 -3.15697 1.67457
rclavicle -4.91744e-014 2.78299e-014
rhumerus -51.7385 -20.0447 -57.9229
rradius 11.7915
rwrist 8.35295
rhand -15.8632 17.4021
rfingers 7.12502
rthumb 10.3321 -12.3241
lclavicle -4.91744e-014 2.78299e-014
lhumerus -51.3982 15.4461 62.1308
lradius 29.8226
lwrist 16.99
lhand -3.67612 19.429
lfingers 7.12502
lthumb 22.065 48.1901
rfemur -14.2742 -5.2335 33.359
rtibia 35.751
rfoot 39.018 -22.7363
rtoes 25.5653
lfemur -39.0041 2.50653 -28.3408
ltibia 31.6519
lfoot -41.4344 28.6878
ltoes 21.1661
70
root 1.44553 17.2468 34.4062 -159.788 -53.9357 -172.554
lowerback -17.4335 3.9033 -0.830074
upperback -11.4485 4.04576 -0.247032
thorax -2.555 1.54961 0.82069
lowerneck -13.0612 -3.95121 -4.16291
upperneck 26.5331 -7.44085 6.76229
head 11.1549 -3.34864 2.08991
rclavicle 7.7526e-015 -7.95139e-016
rhumerus -51.7451 -18.6458 -59.5472
rradius 11.85
rwrist 7.33943
rhand -14.4942 15.9286
rfingers 7.12502
rthumb 11.6525 -13.7274
lclavicle 7.7526e-015 -7.95139e-016
lhumerus -51.3351 13.8065 63.3397
lradius 29.5063
lwrist 17.9785
lhand -4.13594 19.925
lfingers 7.12502
lthumb 21.6234 48.7376
rfemur -14.35 -5.00309 33.4381
rtibia 35.7976
rfoot 38.7982 -23.2464
rtoes 26.0805
lfemur -39.0649 2.55971 -28.3123
ltibia 31.6757
lfoot -41.3239 28.7997
ltoes 20.7518
71
root 1.45098 17.2355 34.4097 -159.689 -53.8455 -172.676
lowerback -17.4301 3.82375 -0.995715
upperback -11.4038 3.96872 -0.18852
thorax -2.52387 1.52393 0.964058
lowerneck -13.3034 -4.2747 -5.25541
upperneck 26.7923 -7.80207 7.24453
head 11.3953 -3.55807 2.39703
rclavicle -7.62836e-015 -1.94809e-014
rhumerus -51.2851 -16.3577 -62.0803
rradius 11.8494
rwrist 4.64878
rhand -18.2839 17.2228
rfingers 7.12502
rthumb 7.99633 -12.6059
lclavicle -7.62836e-015 -1.94809e-014
lhumerus -51.3012 12.6052 64.4627
lradius 29.2033
lwrist 18.5737
lhand -4.32243 20.2787
lfingers 7.12502
lthumb 21.4443 49.1119
rfemur -14.4826 -5.73408 33.2732
rtibia 35.9357
rfoot 39.4433 -21.7688
rtoes 24.7017
lfemur -39.0914 2.72119 -28.4727
ltibia 31.6488
lfoot -41.3015 28.5511
ltoes 21.2295
72
root 1.45003 17.2338 34.4124 -159.674 -53.8033 -172.669
lowerback -17.4715 3.71758 -1.02967
upperback -11.3568 3.8361 -0.0796794
thorax -2.45864 1.46333 1.08139
lowerneck -13.011 -4.6347 -3.84434
upperneck 26.6009 -8.3377 6.08825
head 11.1837 -3.808 1.66252
rclavicle -3.58309e-014 1.74931e-014
rhumerus -50.8067 -13.5996 -65.0682
rradius 11.6023
rwrist 2.05854
rhand -21.7022 18.2057
rfingers 7.12502
rthumb 4.69629 -11.7222
lclavicle -3.58309e-014 1.74931e-014
lhumerus -51.3747 12.0349 65.2173
lradius 28.8594
lwrist 18.5717
lhand -4.37512 20.6867
lfingers 7.12502
lthumb 21.3937 49.5256
rfemur -14.6408 -6.05707 33.2233
rtibia 36.1905
rfoot 39.6699 -21.0192
rtoes 24.0155
lfemur -39.0298 2.84217 -28.5125
ltibia 31.4644
lfoot -41.3383 28.3448
ltoes 21.7933
73
root 1.44749 17.2411 34.4147 -159.349 -53.7346 -173.038
lowerback -17.5086 3.60981 -1.26333
upperback -11.3222 3.72892 -0.0860424
thorax -2.41626 1.42234 1.19195
lowerneck -13.0057 -5.07879 -4.35753
upperneck 26.7396 -8.93618 6.25538
head 11.3068 -4.11432 1.72146
rclavicle 8.44835e-016 9.93923e-015
rhumerus -50.9802 -15.3645 -62.9181
rradius 12.1073
rwrist 0.925523
rhand -17.7269 16.6354
rfingers 7.12502
rthumb 8.53393 -13.1721
lclavicle 8.44835e-016 9.93923e-015
lhumerus -51.4004 11.0631 66.2176
lradius 28.5823
lwrist 18.8962
lhand -4.51725 21.1064
lfingers 7.12502
lthumb 21.2572 49.9608
rfemur -14.7231 -5.91771 32.9614
rtibia 36.3341
rfoot 39.4659 -21.3326
rtoes 24.645
lfemur -39.0041 2.87698 -28.7816
ltibia 31.4347
lfoot -41.1455 28.379
ltoes 21.7651
74
root 1.44572 17.2432 34.4157 -157.951 -53.4215 -174.588
lowerback -17.701 3.40914 -2.31065
upperback -11.3064 3.60599 -0.28056
thorax -2.36309 1.4064 1.5628
lowerneck -11.8614 -5.48086 -2.15521
upperneck 25.5367 -9.31517 4.1986
head 10.4275 -4.34736 0.618553
rclavicle 4.5969e-014 -8.34896e-015
rhumerus -51.1533 -15.087 -63.1687
rradius 12.0694
rwrist 0.407751
rhand -18.0488 17.2121
rfingers 7.12502
rthumb 8.22327 -12.6079
lclavicle 4.5969e-014 -8.34896e-015
lhumerus -51.5593 9.58102 67.5957
lradius 28.614
lwrist 19.9496
lhand -4.84402 21.7053
lfingers 7.12502
lthumb 20.9433 50.5947
rfemur -14.9784 -6.18685 31.8701
rtibia 36.4447
rfoot 39.7514 -20.5454
rtoes 23.9275
lfemur -39.0687 2.99988 -29.974
ltibia 31.3629
lfoot -40.6907 28.6535
ltoes 20.7505
75
root 1.45015 17.2376 34.4186 -159.407 -53.6453 -172.965
lowerback -17.4591 3.48983 -1.23155
upperback -11.2918 3.56917 -0.0391484
thorax -2.40428 1.34273 1.19872
lowerneck -11.8654 -6.13333 -5.21372
upperneck 25.5546 -10.0104 5.81975
head 10.7261 -4.76495 1.59453
rclavicle 9.24349e-015 1.94809e-014
rhumerus -51.2805 -14.1102 -64.4048
rradius 12.3946
rwrist -0.654148
rhand -19.452 17.6787
rfingers 7.12502
rthumb 6.86882 -12.1898
lclavicle 9.24349e-015 1.94809e-014
lhumerus -51.7463 8.31864 68.7239
lradius 28.5965
lwrist 20.6065
lhand -5.07039 22.4727
lfingers 7.12502
lthumb 20.7258 51.386
rfemur -14.7496 -6.0246 32.9326
rtibia 36.3546
rfoot 39.7441 -20.4191
rtoes 23.6512
lfemur -39.0262 2.88284 -28.7688
ltibia 31.3928
lfoot -40.9821 28.7396
ltoes 20.9859
76
root 1.45128 17.2402 34.4202 -159.836 -53.6696 -172.513
lowerback -17.3661 3.43641 -0.94765
upperback -11.2591 3.46511 0.0729998
thorax -2.40022 1.28117 1.13962
lowerneck -12.2941 -6.77093 -8.54628
upperneck 26.2923 -10.8957 8.01394
head 11.4996 -5.23092 2.78512
rclavicle -3.97569e-014 -7.27552e-014
rhumerus -51.3917 -12.9343 -65.761
rradius 12.7449
rwrist -1.80837
rhand -22.3833 18.0332
rfingers 7.12502
rthumb 4.03866 -11.9082
lclavicle -3.97569e-014 -7.27552e-014
lhumerus -52.0118 7.34384 69.6948
lradius 28.5491
lwrist 20.9184
lhand -5.13336 23.0001
lfingers 7.12502
lthumb 20.6653 51.92
rfemur -14.6573 -5.70799 33.2205
rtibia 36.2868
rfoot 39.666 -20.694
rtoes 23.6968
lfemur -38.9793 2.73433 -28.3578
ltibia 31.4171
lfoot -41.498 28.4735
ltoes 21.7792
77
root 1.45036 17.2441 34.4222 -159.643 -53.6004 -172.755
lowerback -17.4036 3.27657 -1.15622
upperback -11.1967 3.28801 0.165954
thorax -2.32832 1.20776 1.33098
lowerneck -12.4716 -6.94307 -7.52493
upperneck 26.4784 -11.2903 7.54998
head 11.5488 -5.36337 2.37705
rclavicle -7.85199e-014 -9.14409e-015
rhumerus -51.3493 -11.4608 -67.2419
rradius 13.0716
rwrist -3.64856
rhand -23.7039 17.992
rfingers 7.12502
rthumb 2.76335 -11.9699
lclavicle -7.85199e-014 -9.14409e-015
lhumerus -52.2778 6.92688 70.3422
lradius 28.3283
lwrist 20.7713
lhand -4.78245 23.2581
lfingers 7.12502
lthumb 21.0024 52.141
rfemur -14.5727 -5.4294 33.064
rtibia 36.1158
rfoot 39.7626 -20.9497
rtoes 24.0177
lfemur -39.0212 2.67894 -28.4978
ltibia 31.548
lfoot -41.7098 28.3653
ltoes 21.9347
